<svg xmlns="http://www.w3.org/2000/svg" viewBox="0 0 1841.53 708.25">
<defs>
<style>
      .grd-icon-green,
      .grd-text-green {
        fill:#8bad33;
      }
      .grd-icon-gray,
      .grd-text-roof {
        fill:#464143;
      }
      .grd-icon-red,
      .grd-text-diagnostics {
        fill:#c12b5b;
      }
      .grd-text-diagnostics {
        font-size:101.75px;
      }
      .grd-text-green,
      .grd-text-roof,
      .grd-text-diagnostics {
        font-family:SourceCodePro-Regular, Source Code Pro, monospace;
      }
      .grd-text-green,
      .grd-text-roof {
        font-size:248.41px;
      }
    </style>
  </defs>
  <title>green-roof-diagnostics-logo</title>
  <g id="grd-icon-green">
    <path class="grd-icon-green" d="M409.21,194.81c-19.94-27.53-42.36-51.46-65.21-70.47l.71-.78a351.1,351.1,0,0,1-39.85-41A340.16,340.16,0,0,1,261.53,16c-33.15,29.88-51.19,79.55-43.16,131.58a157.84,157.84,0,0,0,32.46,74.66L349,320.41l-.3.3H350v133H151.47c-3.31,42.71,40.66,87.46,103.66,103.11a180.71,180.71,0,0,0,49.21,5.39l-.07.28c40,0,82.33-18.89,114.73-51.29,28.34-28.34,45.25-63.19,49.79-96.69a218.29,218.29,0,0,0,4-40.5C478.33,325.87,454.16,256.87,409.21,194.81Z"/>
  </g>
  <g id="grd-icon-gray">
    <path class="grd-icon-gray" d="M113.67,444.21q1.8,2.64,3.64,5.25l1.14,1.59q1.29,1.82,2.6,3.62l1.32,1.79q1.26,1.7,2.53,3.38l1.35,1.77q1.31,1.71,2.63,3.39l1.29,1.63q1.42,1.79,2.85,3.56l1.12,1.38q1.65,2,3.32,4l.72.86q4.17,4.92,8.47,9.65a348.24,348.24,0,0,0,28.06,27.62h0c18.77,19,46.31,34.65,78.82,42.72l.77.18c-54.54-13.8-94.64-49.43-101.84-86.51v0q-.19-1-.34-1.92l0-.13q-.15-.91-.26-1.82l0-.23c-.07-.58-.14-1.15-.19-1.73,0-.11,0-.21,0-.32-.05-.54-.09-1.09-.13-1.63,0-.14,0-.28,0-.42,0-.52-.05-1-.07-1.56,0-.16,0-.32,0-.48,0-.5,0-1,0-1.49,0-.18,0-.37,0-.55,0-.49,0-1,0-1.48,0-.18,0-.37,0-.55q0-1,.12-2H151v-133h.66l-.3-.3,98.8-98.8.67.67a157.84,157.84,0,0,1-32.46-74.66q-.37-2.42-.67-4.84c-.07-.56-.12-1.11-.18-1.67-.12-1.05-.24-2.1-.34-3.15-.07-.7-.11-1.4-.17-2.1-.07-.9-.15-1.8-.21-2.7s-.08-1.56-.12-2.34-.09-1.63-.12-2.44,0-1.66,0-2.49,0-1.5,0-2.25,0-1.75,0-2.63c0-.7,0-1.39,0-2.09,0-.92.07-1.83.11-2.74,0-.65,0-1.3.08-1.94.05-1,.13-1.9.2-2.85,0-.6.08-1.2.13-1.79.08-1,.19-2,.29-3,.06-.55.1-1.1.17-1.64.12-1,.26-2,.39-3,.07-.5.13-1,.2-1.51.15-1.05.33-2.1.5-3.14.08-.45.14-.91.22-1.37.19-1.08.4-2.16.61-3.23.08-.41.15-.82.24-1.23.23-1.11.48-2.21.73-3.31.08-.36.16-.73.24-1.09.27-1.14.56-2.27.85-3.39.08-.32.16-.64.24-1,.31-1.16.64-2.31,1-3.46.08-.28.16-.56.24-.83.35-1.18.73-2.35,1.11-3.52l.23-.71c.4-1.2.82-2.39,1.24-3.57l.21-.59q.66-1.82,1.38-3.61l.19-.49q.73-1.83,1.52-3.64l.17-.39q.8-1.84,1.65-3.65l.14-.3q.87-1.85,1.79-3.66l.11-.22q.94-1.84,1.93-3.65l.08-.16q1-1.84,2.06-3.63l.05-.09q1.07-1.82,2.19-3.6l0,0q1.13-1.8,2.32-3.55h0a127.79,127.79,0,0,1,19-22.25c-57.61,28.24-116.6,83.27-162,152.85A524.22,524.22,0,0,0,59.7,240.31l-.18-.15c-.09.36-.16.74-.25,1.1-.38.85-.78,1.7-1.16,2.55l.57,0C46.51,299.43,67.54,376.44,113.67,444.21Z"/>
  </g>
  <g id="grd-icon-red">
    <path class="grd-icon-red" d="M211,645.9c9,3.21,18,6.79,26.91,10.77A344.08,344.08,0,0,1,305,696.17V562.48h-.71l.13-.56a185,185,0,0,1-50.89-5.51c-32.51-8.07-60-23.69-78.82-42.72h0a368.77,368.77,0,0,1-61-69.49c-46.13-67.76-67.16-144.78-55-200.35l-.52,0a288.37,288.37,0,0,0-19.33,51.08c-.55,2-1.07,4-1.57,6C28.6,327.7,24,357.95,24,388.81a299.18,299.18,0,0,0,5,54.74,205.44,205.44,0,0,0,19,59.77A182.19,182.19,0,0,0,57,520.09a212.72,212.72,0,0,0,38.48,47.65,327.46,327.46,0,0,0,42.4,37.2A314.68,314.68,0,0,0,211,645.4Z"/>
  </g>
  <g id="grd-text-diagnostics">
    <path class="grd-text-diagnostics grd-text-1" d="M518.54,384.45H535q15.32,0,23.28,8.55t8,24.52a46.47,46.47,0,0,1-2,14.19,28.51,28.51,0,0,1-5.91,10.58,25.5,25.5,0,0,1-9.66,6.61,35.7,35.7,0,0,1-13.26,2.29H518.54Zm15.93,59.83q11.51,0,17.22-7t5.71-19.74q0-12.72-5.71-19.43t-17.22-6.71h-7.4v52.91Z"/>
    <path class="grd-text-diagnostics grd-text-2" d="M642.92,444h16.76v-52.4H642.92v-7.12h42.15v7.12H668.31V444h16.76v7.22H642.92Z"/>
    <path class="grd-text-diagnostics grd-text-3" d="M799.48,430.84H775l-6.48,20.35H759.8l22.72-66.75h9.66l22.72,66.75h-9ZM797.32,424l-3.19-10.17q-1.75-5.59-3.39-11.14t-3.29-11.34H787q-1.65,5.8-3.29,11.34t-3.39,11.14L777.17,424Z"/>
    <path class="grd-text-diagnostics grd-text-4" d="M885.31,417.82a44.6,44.6,0,0,1,2.21-14.5,31.27,31.27,0,0,1,6.17-10.89,26.92,26.92,0,0,1,9.46-6.82,30,30,0,0,1,12.08-2.39,24.87,24.87,0,0,1,6.17.71,25.15,25.15,0,0,1,5.09,1.88,24.33,24.33,0,0,1,4.11,2.59,30.65,30.65,0,0,1,3.24,3L929,396.76a22.13,22.13,0,0,0-5.65-4.37,16.92,16.92,0,0,0-8.12-1.73,19.3,19.3,0,0,0-8.58,1.88,19,19,0,0,0-6.63,5.39,25.15,25.15,0,0,0-4.27,8.5,39,39,0,0,0-1.49,11.19A42.7,42.7,0,0,0,895.64,429a26,26,0,0,0,4,8.6,17.78,17.78,0,0,0,6.53,5.5A19.66,19.66,0,0,0,915,445a20.27,20.27,0,0,0,6.68-1.07,13.91,13.91,0,0,0,5-2.9v-17.4H913.27v-7h21.38v28.08a27.33,27.33,0,0,1-8.43,5.49,31.14,31.14,0,0,1-23.44-.1,26.23,26.23,0,0,1-9.25-6.77,31.09,31.09,0,0,1-6.07-10.89A46,46,0,0,1,885.31,417.82Z"/>
    <path class="grd-text-diagnostics grd-text-5" d="M1011.74,384.45h8.74l21.9,42.12,6.78,13.63h.21q-.21-5-.67-10.43t-.46-10.73V384.45h8.12v66.75h-8.74l-21.9-42.12-6.78-13.63h-.21q.2,5.19.67,10.43t.46,10.43v34.9h-8.12Z"/>
    <path class="grd-text-diagnostics grd-text-6" d="M1157.4,452.42a22.5,22.5,0,0,1-10.49-2.44,24.1,24.1,0,0,1-8.17-7,33.62,33.62,0,0,1-5.35-11,51.27,51.27,0,0,1-1.9-14.5,50.22,50.22,0,0,1,1.9-14.4,32.54,32.54,0,0,1,5.35-10.79,22.83,22.83,0,0,1,18.66-9.11,23,23,0,0,1,10.43,2.39,23.89,23.89,0,0,1,8.22,6.82,32.6,32.6,0,0,1,5.34,10.79,49.86,49.86,0,0,1,1.9,14.3,51.3,51.3,0,0,1-1.9,14.5,33.68,33.68,0,0,1-5.34,11,24,24,0,0,1-8.22,7A22.6,22.6,0,0,1,1157.4,452.42Zm0-7.43a13.22,13.22,0,0,0,7-1.93,16.22,16.22,0,0,0,5.4-5.55,30.31,30.31,0,0,0,3.44-8.65,47.8,47.8,0,0,0,1.23-11.34,46.7,46.7,0,0,0-1.23-11.19,28.21,28.21,0,0,0-3.44-8.45,16.19,16.19,0,0,0-5.4-5.34,14,14,0,0,0-14,0,16.34,16.34,0,0,0-5.34,5.34,28.16,28.16,0,0,0-3.44,8.45,46.7,46.7,0,0,0-1.23,11.19,47.8,47.8,0,0,0,1.23,11.34,30.25,30.25,0,0,0,3.44,8.65,16.38,16.38,0,0,0,5.34,5.55A13.14,13.14,0,0,0,1157.4,445Z"/>
    <path class="grd-text-diagnostics grd-text-7" d="M1261.94,436.64a30.2,30.2,0,0,0,8.84,6.05,25.3,25.3,0,0,0,10.59,2.29q7.19,0,11.1-3a9.47,9.47,0,0,0,3.91-7.89,8.69,8.69,0,0,0-3.49-7.38,19.93,19.93,0,0,0-3.86-2.29q-2.21-1-4.78-2.14l-9.66-4.17a43.59,43.59,0,0,1-5.14-2.44,22.12,22.12,0,0,1-4.68-3.46,16.53,16.53,0,0,1-3.44-4.83,14.82,14.82,0,0,1-1.34-6.46,15.35,15.35,0,0,1,1.64-7,17.3,17.3,0,0,1,4.57-5.65,21.43,21.43,0,0,1,7-3.71,28.59,28.59,0,0,1,8.89-1.32,29.46,29.46,0,0,1,11.72,2.29,28.82,28.82,0,0,1,9,6l-4.52,5.49a26,26,0,0,0-7.25-4.63,22.83,22.83,0,0,0-9-1.68q-6.17,0-9.77,2.59a8.35,8.35,0,0,0-3.6,7.17,7.46,7.46,0,0,0,1.08,4.12,11.34,11.34,0,0,0,2.78,3,18.27,18.27,0,0,0,3.86,2.19l4.32,1.83,9.46,4.07a43.78,43.78,0,0,1,5.81,2.8,21.39,21.39,0,0,1,4.73,3.66,15.92,15.92,0,0,1,3.19,4.88,16.51,16.51,0,0,1,1.18,6.46,17.1,17.1,0,0,1-1.64,7.43,17.92,17.92,0,0,1-4.73,6.05,22.67,22.67,0,0,1-7.5,4.07,31.44,31.44,0,0,1-10,1.47,34.21,34.21,0,0,1-24.46-9.87Z"/>
    <path class="grd-text-diagnostics grd-text-8" d="M1399.79,391.57h-22.2v-7.12h53v7.12h-22.2v59.63h-8.63Z"/>
    <path class="grd-text-diagnostics grd-text-9" d="M1506.38,444h16.76v-52.4h-16.76v-7.12h42.15v7.12h-16.75V444h16.75v7.22h-42.15Z"/>
    <path class="grd-text-diagnostics grd-text-10" d="M1626.76,417.82a44.16,44.16,0,0,1,2.21-14.45,31.47,31.47,0,0,1,6.22-10.89,27.05,27.05,0,0,1,9.56-6.87,30.36,30.36,0,0,1,12.13-2.39,22.8,22.8,0,0,1,10.79,2.44,27.77,27.77,0,0,1,7.61,5.7l-4.83,5.39a22.65,22.65,0,0,0-6-4.43,16.5,16.5,0,0,0-7.61-1.68,20.2,20.2,0,0,0-8.79,1.88,18.77,18.77,0,0,0-6.73,5.39,25.15,25.15,0,0,0-4.27,8.5,39,39,0,0,0-1.49,11.19,39.93,39.93,0,0,0,1.49,11.34,25.65,25.65,0,0,0,4.27,8.6,19,19,0,0,0,6.73,5.5,19.75,19.75,0,0,0,8.79,1.93,17.1,17.1,0,0,0,8.22-1.93,26.6,26.6,0,0,0,6.89-5.5l4.93,5.19a29.93,29.93,0,0,1-9,7.12,25.21,25.21,0,0,1-11.51,2.54,29.27,29.27,0,0,1-11.77-2.34,26.6,26.6,0,0,1-9.35-6.77,31.9,31.9,0,0,1-6.22-10.89A44,44,0,0,1,1626.76,417.82Z"/>
    <path class="grd-text-diagnostics grd-text-11" d="M1755.35,436.64a30.2,30.2,0,0,0,8.84,6.05,25.3,25.3,0,0,0,10.59,2.29q7.19,0,11.1-3a9.47,9.47,0,0,0,3.91-7.89,8.69,8.69,0,0,0-3.49-7.38,19.93,19.93,0,0,0-3.86-2.29q-2.21-1-4.78-2.14l-9.66-4.17a43.59,43.59,0,0,1-5.14-2.44,22.12,22.12,0,0,1-4.68-3.46,16.53,16.53,0,0,1-3.44-4.83,14.82,14.82,0,0,1-1.34-6.46,15.35,15.35,0,0,1,1.64-7,17.3,17.3,0,0,1,4.57-5.65,21.43,21.43,0,0,1,7-3.71,28.59,28.59,0,0,1,8.89-1.32,29.46,29.46,0,0,1,11.72,2.29,28.82,28.82,0,0,1,9,6l-4.52,5.49a26,26,0,0,0-7.25-4.63,22.83,22.83,0,0,0-9-1.68q-6.17,0-9.77,2.59a8.35,8.35,0,0,0-3.6,7.17,7.46,7.46,0,0,0,1.08,4.12,11.34,11.34,0,0,0,2.78,3,18.27,18.27,0,0,0,3.86,2.19l4.32,1.83,9.46,4.07a43.78,43.78,0,0,1,5.81,2.8,21.39,21.39,0,0,1,4.73,3.66,15.92,15.92,0,0,1,3.19,4.88,16.51,16.51,0,0,1,1.18,6.46,17.1,17.1,0,0,1-1.64,7.43,17.92,17.92,0,0,1-4.73,6.05,22.67,22.67,0,0,1-7.5,4.07,31.44,31.44,0,0,1-10,1.47,34.21,34.21,0,0,1-24.46-9.87Z"/>
  </g>
  <g id="grd-text-roof">
    <path class="grd-text-roof grd-text-1" d="M1329.46,342.94l-39.18-68.81h-29v68.81h-20.58V180h50.59a103.34,103.34,0,0,1,22.82,2.36,48.78,48.78,0,0,1,18,7.82,37.2,37.2,0,0,1,11.78,14.16q4.21,8.7,4.22,21.36,0,19.13-9.92,30.56t-26.54,15.65l41.42,71Zm-68.2-85.7h27q19.09,0,29.14-7.83t10-23.72q0-16.14-10-22.61t-29.14-6.46h-27Z"/>
    <path class="grd-text-roof grd-text-2" d="M1379.55,282.82a70.6,70.6,0,0,1,4.84-27,60.26,60.26,0,0,1,13-20,54.75,54.75,0,0,1,19-12.42,63.08,63.08,0,0,1,45.38,0,54.74,54.74,0,0,1,19,12.42,60.26,60.26,0,0,1,13,20,70.6,70.6,0,0,1,4.84,27,69.88,69.88,0,0,1-4.84,26.7,58.8,58.8,0,0,1-13,19.87,55.52,55.52,0,0,1-19,12.3,63.07,63.07,0,0,1-45.38,0,55.53,55.53,0,0,1-19-12.3,58.8,58.8,0,0,1-13-19.87A69.88,69.88,0,0,1,1379.55,282.82Zm21.08,0a61.15,61.15,0,0,0,2.73,18.88,42.93,42.93,0,0,0,7.81,14.53,35.44,35.44,0,0,0,12.15,9.44,38.65,38.65,0,0,0,31.5,0,35.48,35.48,0,0,0,12.15-9.44,43.07,43.07,0,0,0,7.81-14.53,61.27,61.27,0,0,0,2.73-18.88,62.48,62.48,0,0,0-2.73-19A44.34,44.34,0,0,0,1467,249a34.91,34.91,0,0,0-12.15-9.56,38.65,38.65,0,0,0-31.5,0,34.88,34.88,0,0,0-12.15,9.56,44.2,44.2,0,0,0-7.81,14.78A62.35,62.35,0,0,0,1400.63,282.82Z"/>
    <path class="grd-text-roof grd-text-3" d="M1528.34,282.82a70.6,70.6,0,0,1,4.84-27,60.26,60.26,0,0,1,13-20,54.75,54.75,0,0,1,19-12.42,63.08,63.08,0,0,1,45.38,0,54.74,54.74,0,0,1,19,12.42,60.26,60.26,0,0,1,13,20,70.6,70.6,0,0,1,4.84,27,69.88,69.88,0,0,1-4.84,26.7,58.8,58.8,0,0,1-13,19.87,55.52,55.52,0,0,1-19,12.3,63.07,63.07,0,0,1-45.38,0,55.53,55.53,0,0,1-19-12.3,58.8,58.8,0,0,1-13-19.87A69.88,69.88,0,0,1,1528.34,282.82Zm21.08,0a61.15,61.15,0,0,0,2.73,18.88,42.93,42.93,0,0,0,7.81,14.53,35.44,35.44,0,0,0,12.15,9.44,38.65,38.65,0,0,0,31.5,0,35.48,35.48,0,0,0,12.15-9.44,43.07,43.07,0,0,0,7.81-14.53,61.27,61.27,0,0,0,2.73-18.88,62.48,62.48,0,0,0-2.73-19,44.34,44.34,0,0,0-7.81-14.78,34.91,34.91,0,0,0-12.15-9.56,38.65,38.65,0,0,0-31.5,0A34.88,34.88,0,0,0,1560,249a44.2,44.2,0,0,0-7.81,14.78A62.35,62.35,0,0,0,1549.42,282.82Z"/>
    <path class="grd-text-roof grd-text-4" d="M1800.89,185.44a55.92,55.92,0,0,0-13.76-4.6,82.42,82.42,0,0,0-14.26-1.12q-16.37,0-23.44,8.32t-7.07,23.23v10.93H1793v16.64h-50.59V342.94h-20.09V238.85h-34.47v-15.4l34.47-1.24V212q0-22.11,11.78-35.52t36.83-13.41a90.3,90.3,0,0,1,34.72,7Z"/>
  </g>
  <g id="grd-text-gr">
    <path class="grd-text-green grd-text-1" d="M520.51,261.46a113.63,113.63,0,0,1,5.15-35.4A77.37,77.37,0,0,1,540,199.48a63,63,0,0,1,22-16.64A67.19,67.19,0,0,1,590.25,177a55.5,55.5,0,0,1,14.38,1.74,56.9,56.9,0,0,1,11.86,4.6,56.31,56.31,0,0,1,9.59,6.33,72.53,72.53,0,0,1,7.55,7.2L622.37,210a52,52,0,0,0-13.18-10.68q-7.43-4.22-18.93-4.22a43.33,43.33,0,0,0-20,4.6,44.86,44.86,0,0,0-15.46,13.17,62.54,62.54,0,0,0-9.95,20.74A99.48,99.48,0,0,0,541.36,261a109,109,0,0,0,3.24,27.7,64.88,64.88,0,0,0,9.35,21,42,42,0,0,0,15.22,13.41,44.11,44.11,0,0,0,20.61,4.72,45.36,45.36,0,0,0,15.58-2.61,32.11,32.11,0,0,0,11.74-7.08V275.62H585.7V258.48h49.85V327a63.53,63.53,0,0,1-19.65,13.41,69.57,69.57,0,0,1-54.65-.25,61.39,61.39,0,0,1-21.57-16.52q-9.11-10.81-14.14-26.58T520.51,261.46Z"/>
    <path class="grd-text-green grd-text-2" d="M686.6,222.21h16.3l1.68,28.57h.72a71.52,71.52,0,0,1,22.41-23.1,54.1,54.1,0,0,1,29.6-8.45,58.53,58.53,0,0,1,11.86,1.12,45.35,45.35,0,0,1,10.91,3.85L776,241.83a96.87,96.87,0,0,0-10.55-3.23,52,52,0,0,0-11.26-1,45.88,45.88,0,0,0-25.29,7.83q-12.11,7.83-22.65,26.7v70.8H686.6Z"/>
    <path class="grd-text-green grd-text-3" d="M781.34,282.82a67.47,67.47,0,0,1,5-26.7,62.08,62.08,0,0,1,13.3-20,59.35,59.35,0,0,1,63.15-12.79,46.59,46.59,0,0,1,16.66,11.55,50.39,50.39,0,0,1,10.43,17.89,70.56,70.56,0,0,1,3.59,23.1,72.27,72.27,0,0,1-.72,11.18H801.71q1.2,19.63,13.3,31.05t31.28,11.43a56.6,56.6,0,0,0,18.81-3,80,80,0,0,0,16.66-8.2l6.95,13.41a100.55,100.55,0,0,1-19.65,9.94,70,70,0,0,1-25.17,4.22,67.66,67.66,0,0,1-24.33-4.35,59.19,59.19,0,0,1-19.89-12.42,57.54,57.54,0,0,1-13.42-19.75A67.94,67.94,0,0,1,781.34,282.82Zm94-9.19q0-18.63-9.11-28.44t-25.41-9.81A37.1,37.1,0,0,0,827,238a38.08,38.08,0,0,0-11.86,7.45,43.27,43.27,0,0,0-9,11.92,44.61,44.61,0,0,0-4.67,16.27Z"/>
    <path class="grd-text-green grd-text-4" d="M925.14,282.82a67.47,67.47,0,0,1,5-26.7,62.06,62.06,0,0,1,13.3-20,59.35,59.35,0,0,1,63.15-12.79,46.6,46.6,0,0,1,16.66,11.55,50.4,50.4,0,0,1,10.43,17.89,70.56,70.56,0,0,1,3.6,23.1,72.11,72.11,0,0,1-.72,11.18H945.51q1.2,19.63,13.3,31.05t31.28,11.43a56.6,56.6,0,0,0,18.81-3,79.93,79.93,0,0,0,16.66-8.2l6.95,13.41a100.55,100.55,0,0,1-19.65,9.94,70,70,0,0,1-25.17,4.22,67.66,67.66,0,0,1-24.33-4.35,59.18,59.18,0,0,1-19.89-12.42,57.54,57.54,0,0,1-13.42-19.75A67.94,67.94,0,0,1,925.14,282.82Zm94-9.19q0-18.63-9.11-28.44t-25.4-9.81A37.1,37.1,0,0,0,970.8,238a38.08,38.08,0,0,0-11.86,7.45,43.25,43.25,0,0,0-9,11.92,44.61,44.61,0,0,0-4.67,16.27Z"/>
    <path class="grd-text-green grd-text-5" d="M1074.69,222.21H1091l1.68,20.62h1a94.28,94.28,0,0,1,19.65-16.89,44.12,44.12,0,0,1,24.21-6.71q20.85,0,30.56,12.3t9.71,36.39v75H1158.1V270.65q0-17.14-6.23-25.46t-20.61-8.32a32.91,32.91,0,0,0-9.71,1.37,36.42,36.42,0,0,0-8.75,4.1,67,67,0,0,0-8.87,6.83q-4.56,4.1-9.59,9.56v84.21h-19.65Z"/>
  </g>
</svg>